<svg xmlns="http://www.w3.org/2000/svg" viewBox="0 0 24 24">
  <defs>
    <linearGradient id="grad" x1="0" y1="0" x2="0" y2="1">
      <stop offset="0%" stop-color="rgb(26, 26, 27)"></stop>
      <stop offset="100%" stop-color="rgb(48, 49, 49)"></stop>
    </linearGradient>
  </defs>
  <path fill="url(#grad)" d="M12 .5C5.65.5.5 5.65.5 12a11.5 11.5 0 0 0 7.85 10.94c.58.11.79-.25.79-.56v-2c-3.2.7-3.88-1.55-3.88-1.55a3.05 3.05 0 0 0-1.28-1.68c-1.05-.71.08-.7.08-.7a2.4 2.4 0 0 1 1.75 1.18 2.42 2.42 0 0 0 3.3 1 2.42 2.42 0 0 1 .72-1.53c-2.56-.29-5.25-1.28-5.25-5.7A4.46 4.46 0 0 1 5.78 7.2a4.14 4.14 0 0 1 .11-3.06s.96-.31 3.14 1.18a10.82 10.82 0 0 1 5.72 0c2.18-1.49 3.14-1.18 3.14-1.18a4.14 4.14 0 0 1 .11 3.06 4.46 4.46 0 0 1 1.18 3.1c0 4.42-2.7 5.41-5.27 5.69a2.73 2.73 0 0 1 .78 2.11v3.12c0 .31.21.68.8.56A11.5 11.5 0 0 0 23.5 12C23.5 5.65 18.35.5 12 .5Z"></path>
</svg>
